<?xml version="1.0" encoding="UTF-8" standalone="no"?>
<svg
   width="16"
   height="16"
   version="1.1"
   id="svg1"
   sodipodi:docname="AdvancedTextButton.svg"
   inkscape:version="1.3.2 (091e20ef0f, 2023-11-25, custom)"
   xmlns:inkscape="http://www.inkscape.org/namespaces/inkscape"
   xmlns:sodipodi="http://sodipodi.sourceforge.net/DTD/sodipodi-0.dtd"
   xmlns="http://www.w3.org/2000/svg"
   xmlns:svg="http://www.w3.org/2000/svg">
  <defs
     id="defs1" />
  <sodipodi:namedview
     id="namedview1"
     pagecolor="#505050"
     bordercolor="#ffffff"
     borderopacity="1"
     inkscape:showpageshadow="0"
     inkscape:pageopacity="0"
     inkscape:pagecheckerboard="1"
     inkscape:deskcolor="#d1d1d1"
     inkscape:zoom="35.929863"
     inkscape:cx="8.7392485"
     inkscape:cy="8.6696685"
     inkscape:window-width="1920"
     inkscape:window-height="1012"
     inkscape:window-x="0"
     inkscape:window-y="40"
     inkscape:window-maximized="1"
     inkscape:current-layer="svg1" />
  <path
     fill="#8eef97"
     d="m 5.4968658,10.788441 c -0.8284271,0 -1.5,0.671573 -1.5,1.500001 v 1.5 h -2 v 2 H 13.996866 v -2 h -2 v -1.5 c 0,-0.828428 -0.671573,-1.500001 -1.5,-1.500001 z"
     id="path1"
     sodipodi:nodetypes="ssccccccsss" />
  <path
     id="path123255"
     style="display:inline;fill:#8eef97;fill-opacity:1;stroke-width:0.834221"
     d="M 7.0932834,0.07760075 6.7045072,1.5087259 h 0.00152 3.1699035 0.00151 L 9.488695,0.07760075 Z M 6.315731,2.939851 5.9269548,4.3709759 H 7.6443049 C 7.7682934,3.8542214 7.8711498,3.432867 7.982571,2.939851 Z m 2.2836772,0 C 8.7108353,3.432867 8.8136855,3.8542214 8.9376738,4.3709759 H 10.655024 L 10.266248,2.939851 Z M 5.5381785,5.8021011 5.1524636,7.2332261 h 0.0092 6.2586854 0.01074 L 11.04381,5.8021011 H 11.03601 9.2819253 9.2666193 L 9.3753986,6.2521019 H 7.2080794 L 7.3152226,5.8021011 H 7.3014471 5.5458317 Z M 4.7636873,8.6643513 4.3749111,10.095476 H 4.4284821 6.262159 6.277465 L 6.6249152,8.6643513 H 6.3203228 4.7744017 Z m 5.1949071,0 0.3474496,1.4311247 h 0.01377 1.833678 0.05357 L 11.818294,8.6643513 h -0.01074 -1.544392 z" />
</svg>
