<?xml version="1.0" encoding="UTF-8" standalone="no"?>
<svg
   width="16"
   height="16"
   version="1.1"
   id="svg1"
   sodipodi:docname="AdvancedTextCheckButton.svg"
   inkscape:version="1.3.2 (091e20ef0f, 2023-11-25, custom)"
   xmlns:inkscape="http://www.inkscape.org/namespaces/inkscape"
   xmlns:sodipodi="http://sodipodi.sourceforge.net/DTD/sodipodi-0.dtd"
   xmlns="http://www.w3.org/2000/svg"
   xmlns:svg="http://www.w3.org/2000/svg">
  <defs
     id="defs1" />
  <sodipodi:namedview
     id="namedview1"
     pagecolor="#505050"
     bordercolor="#ffffff"
     borderopacity="1"
     inkscape:showpageshadow="0"
     inkscape:pageopacity="0"
     inkscape:pagecheckerboard="1"
     inkscape:deskcolor="#d1d1d1"
     inkscape:zoom="50.8125"
     inkscape:cx="7.6752768"
     inkscape:cy="9.4366544"
     inkscape:window-width="1920"
     inkscape:window-height="1012"
     inkscape:window-x="0"
     inkscape:window-y="40"
     inkscape:window-maximized="1"
     inkscape:current-layer="svg1" />
  <path
     fill="#8eef97"
     d="M 5.4883703,9.1907792 A 3.3488393,3.3488393 0 0 0 2.139531,12.539618 3.3488393,3.3488393 0 0 0 5.4883703,15.888457 H 10.51163 A 3.3488393,3.3488393 0 0 0 13.860469,12.539618 3.3488393,3.3488393 0 0 0 10.51163,9.1907792 Z m 0,1.6744198 h 2.1273503 a 3.3488393,3.3488393 0 0 0 -0.4529473,1.674419 3.3488393,3.3488393 0 0 0 0.4529473,1.674419 H 5.4883703 A 1.6744196,1.6744196 0 0 1 3.8139508,12.539618 1.6744196,1.6744196 0 0 1 5.4883703,10.865199 Z"
     id="path1"
     style="stroke-width:0.83721" />
  <g
     id="g1"
     transform="matrix(0.67705882,0,0,0.59560498,4.2543576,-0.8928833)">
    <path
       id="path123255"
       style="display:inline;fill:#8eef97;fill-opacity:1;stroke-width:1.19867"
       d="M 3.7552429,1.9555624 3.178433,3.9470761 h 0.00227 4.7030453 0.00227 L 7.30921,1.9555624 Z M 2.601623,5.9385898 2.024813,7.9301033 H 4.5727689 C 4.7567254,7.2110022 4.9093295,6.6246571 5.0746391,5.9385898 Z m 3.3881909,0 C 6.1551235,6.6246571 6.3077275,7.2110022 6.4916841,7.9301033 H 9.0396399 L 8.46283,5.9385898 Z M 1.4480029,9.921617 0.87573489,11.913131 h 0.0136257 9.28573241 0.0159 L 9.61645,9.921617 H 9.6050953 7.0026378 6.9799288 L 7.141163,10.547826 H 3.9255608 L 4.0845243,9.921617 H 4.064086 1.4593576 Z m -1.14907805,3.983027 -0.57680999,1.991514 h 0.0794817 2.72054474 0.022709 L 3.0603459,13.904644 H 2.6084357 0.31482121 Z m 7.70745305,0 0.5154956,1.991514 h 0.020438 2.7205455 0.07948 l -0.57681,-1.991514 h -0.01589 -2.2913436 z" />
  </g>
</svg>
